<svg viewBox="0 0 62.15 18.99" xmlns="http://www.w3.org/2000/svg"><g fill="#040000"><path d="m16.87 10.51a.27.27 0 0 1 .24.29.48.48 0 0 1 -.36.46c-1.17.26-1.27.45-1.27 2.4 0 1.29.12 2.3.7 2.73a.22.22 0 0 1 .09.2.34.34 0 0 1 -.28.31 30.14 30.14 0 0 1 -6.32.91c-5 0-9.67-3-9.67-9.07a9 9 0 0 1 9.29-8.74c2.14 0 3.41.43 5 .43h.24c.57 0 .69 0 .72.58s.43 2.61.43 3.5c0 .17-.24.27-.43.27a.32.32 0 0 1 -.29-.15 5.6 5.6 0 0 0 -5.77-3.84c-3.29 0-6.69 2.62-6.69 7.95s3.5 8.26 7.41 8.26c3.22 0 3.6-1.95 3.6-3.34 0-.24 0-.51 0-.84-.12-1.51-1.11-1.37-2.48-1.51a.4.4 0 0 1 -.26-.41c0-.17.07-.34.26-.34 0 0 1.71.12 3.44.12a17.65 17.65 0 0 0 2.4-.12z"/><path d="m30.06 12.19c0 .58 0 .79-.29.79h-5.06c-.27 0-.31-.21-.31-.81s0-.77.31-.77h5.06c.23 0 .29.17.29.79z"/><path d="m37.62 19c-2.81 0-2.84-1.32-2.84-1.44a1.06 1.06 0 0 1 1.08-1h.2c1.12.21 1.22 1.51 2.56 1.51 1.9 0 4.54-2.28 4.54-5.71 0-3.08-1.82-3.89-2.86-3.89a2.7 2.7 0 0 0 -1.24.36.89.89 0 0 1 -.48.19c-.15 0-.24-.07-.24-.31a1.14 1.14 0 0 1 .74-1.18c2.76-.84 3.26-2.66 3.26-3.67a1.83 1.83 0 0 0 -1.8-2 4.63 4.63 0 0 0 -3.38 2.06.63.63 0 0 1 -.48.32.29.29 0 0 1 -.29-.32 6 6 0 0 1 5-3.45 2.83 2.83 0 0 1 3.08 2.76 5.22 5.22 0 0 1 -2.5 4s-.07.07-.07.1 0 0 .09 0a4.07 4.07 0 0 1 3.44 4.25c-.01 4.26-4.29 7.42-7.81 7.42z"/><path d="m61.33 17.19a.34.34 0 0 1 -.26.31s-2.5-.12-5.21-.12c-1.34 0-2.73 0-3.89.12-.22 0-.65-.34-.65-.58 0-.05 0-.09.1-.14 2.07-1.23 5.83-5.78 7.27-8.78a7.58 7.58 0 0 0 .75-3c0-1.54-.7-2.83-2.59-2.83-.65 0-2.45.14-3.89 2.76a.32.32 0 0 1 -.29.19.39.39 0 0 1 -.38-.36c0-.1 1.41-4.32 5.16-4.32a4.15 4.15 0 0 1 4.27 4.37 7.44 7.44 0 0 1 -1.49 4.19c-1.63 2.3-4.54 4.53-5.71 6.31a.17.17 0 0 0 -.05.14c0 .1.07.17.19.2.53 0 1.11.07 1.8.07 2.91 0 4.49-.24 5.14-2.09 0-.07.09-.1.19-.1s.36.07.36.22c-.34 1.8-.72 2.76-.82 3.44z"/></g></svg>