<svg xmlns="http://www.w3.org/2000/svg" viewBox="0 0 310.94 21.84"><defs><style>.cls-1{fill:#040000}</style></defs><title>bunfree</title><g id="レイヤー_2" data-name="レイヤー 2"><g id="レイヤー_1-2" data-name="レイヤー 1"><path class="cls-1" d="M10.42 3.7c0 .12-.12.24-.46.24H4.27C2.11 6.55.29 7.63.07 7.63H0a1.14 1.14 0 0 1 .26-.33c1.8-1.73 4-5.11 4.08-6.75V.29s2.4.89 2.4 1.42c0 .19-.31.28-.69.31s-.36.07-.6.38l-.75 1h2.72a.37.37 0 0 0 .26-.19C7.87 2.83 8.4 2 8.67 2a2.85 2.85 0 0 1 1.75 1.7zM20.09 14c0 .2-.19.36-.6.53a.47.47 0 0 0-.34.41 9.09 9.09 0 0 1-1 3.26 3.66 3.66 0 0 1-3.26 1.61c-.17 0-.34-.05-.38-.17-.34-.74-2.16-1.75-2.16-1.89s.12 0 .24.05a11.27 11.27 0 0 0 2.72.51c.81 0 2.16-.24 2.35-3.8 0-.12-.07-.28-.22-.28H11c0 2.44.07 5.06.19 6.69V21a1 1 0 0 1-1 .87c-.34 0-.63-.22-.63-.72V21c.08-1.32.12-3.24.15-5.16a18.85 18.85 0 0 1-9.4 5.47c-.12 0-.17 0-.17-.07s.15-.19.44-.31a19.82 19.82 0 0 0 8.66-6.74h-5.4l-.26 1.39a1.07 1.07 0 0 1-1.06.77c-.34 0-.6-.15-.6-.48a.68.68 0 0 1 .08-.22 16.74 16.74 0 0 0 1-5.74V9.7a6.94 6.94 0 0 1 2.06.79h4.56c0-.38 0-1.82-.09-2.52h-.84c-.39 0-4.75 0-5.88.2C2.54 8.14 1.9 7.3 1.9 7c1.46.22 6.16.29 7 .29h6.79a.45.45 0 0 0 .34-.12 6.72 6.72 0 0 1 .5-.53.42.42 0 0 1 .24-.09c.15 0 1.87.88 1.87 1.34 0 .22-.28.36-.57.5s-.43.32-.43.7.07 1.34.14 2.14a.9.9 0 0 1-.94.87.57.57 0 0 1-.6-.63v-.45H11v2.49h6.31a.67.67 0 0 0 .48-.16c.57-.58.57-.58.62-.58.26.07 1.68.84 1.68 1.23zM9.62 11.09H5l-.12.05c-.53.19-.48.16-.65 1l-.26 1.39h5.68c0-.88 0-1.75-.03-2.44zM7.73 6a.91.91 0 0 1-.79 1c-.29 0-.58-.19-.75-.72a5.7 5.7 0 0 0-1.1-1.73.8.8 0 0 1-.15-.21s0-.07.17-.07c.75-.09 2.62.43 2.62 1.73zm12.62-2.3c0 .14-.09.29-.45.29h-7.78a13.85 13.85 0 0 1-3.41 2.87s.05-.15.19-.29S12.1 3 12.29.53c0-.19 0-.27.1-.27.31 0 2.4.82 2.4 1.35 0 .17-.27.29-.72.31a1.29 1.29 0 0 0-.32 0 1.3 1.3 0 0 0-.26.32c-.26.36-.55.72-.86 1.1H17a.41.41 0 0 0 .29-.19c.24-.34 1-1.32 1.17-1.32s1.89 1.31 1.89 1.82zM16.3 9.77V8.16a.22.22 0 0 0-.21-.22h-4.64a.07.07 0 0 0 .05 0c.12 0 .17.09.17.17s-.15.28-.39.36S11 8.69 11 9v1.49h5.3zM15.84 6a.91.91 0 0 1-.79 1c-.29 0-.58-.19-.74-.72a5.56 5.56 0 0 0-1.11-1.82.93.93 0 0 1-.14-.21s0-.07.17-.07c.77 0 2.61.52 2.61 1.82zm32.33 12.15c0 .16-.12.33-.53.33H36.07c-1.32 0-5.4 0-7.53.24-.43 0-1.15-1-1.15-1.32 2.45.29 7.46.39 8.83.39h7.68a.46.46 0 0 0 .39-.22C45.29 16 45.55 16 45.7 16h.17c.57.18 2.3 1.59 2.3 2.15zM45.75 6c0 .17-.12.34-.53.34h-7.47c-1.32 0-5 0-7.13.24-.43 0-1.15-1-1.15-1.32 2.45.29 7.05.38 8.42.38h3.61a.44.44 0 0 0 .38-.21c1-1.56 1.27-1.59 1.42-1.59h.17c.38.16 2.28 1.54 2.28 2.16zM74.2 9.38c0 .17-.12.34-.53.34H64.5c0 3.58.08 7.73.15 10.71 0 .58-.72.89-1.11.89a.7.7 0 0 1-.76-.75v-.07c.16-2.95.24-7.18.24-10.8H61.7c-1.32 0-5 0-7.09.24-.43 0-1.15-1-1.15-1.32 2.45.29 7 .38 8.38.38H63a67.31 67.31 0 0 0-.32-8.11.5.5 0 0 1 0-.15c.53 0 3.15.45 3.15 1 0 .19-.22.41-.55.6-.58.31-.6.26-.65 1-.1 1.13-.15 3.24-.15 5.73h5.4a.45.45 0 0 0 .39-.21c1-1.59 1.29-1.61 1.44-1.61h.17c.59.17 2.32 1.58 2.32 2.13zM100.76 7c0 .15-.12.32-.44.41L89.6 10.78v5.71c0 2 .81 2.23 3.62 2.23a14.43 14.43 0 0 0 2.78-.24c2.18-.41 2.08-2.4 2.64-4.77 0-.17.07-.25.09-.25.22 0 .24 3.58.7 3.89a1 1 0 0 1 .55.84c0 1.44-3.58 2-7 2-2.59 0-5-.15-5-3.17v-.15l.07-5.64c-1.41.43-4.17 1.32-6 2.07a.39.39 0 0 1-.15 0 2.17 2.17 0 0 1-1.39-.89c2.26-.41 6-1.41 7.54-1.87V4.25A23.31 23.31 0 0 0 88 1.34a.53.53 0 0 1 0-.16c0-.05 0-.08.1-.08s2.78.36 2.78 1c0 .19-.19.36-.55.53s-.46.09-.53.91c0 .57-.1 3.55-.14 6.55l7.08-2.23a.55.55 0 0 0 .26-.35 11 11 0 0 1 .67-1.8.46.46 0 0 1 .33-.17c.86.03 2.76.96 2.76 1.46zm27.04-3.83c0 .26-.31.45-.74.67s-.43.22-.43 2.52c0 3.48.16 10.59.31 13.85v.05a1 1 0 0 1-1 1 .69.69 0 0 1-.72-.75v-1H111v1a1 1 0 0 1-1 .91.66.66 0 0 1-.7-.72v-.1c.24-3.5.34-8.57.34-12.53V5.55a26.6 26.6 0 0 0-.29-3.84.38.38 0 0 1 0-.17.07.07 0 0 1 0-.07 11.36 11.36 0 0 1 2.45 1.11l.1.07h12.65a.54.54 0 0 0 .36-.22c.12-.17.6-.77.86-.77s2.03 1 2.03 1.51zm-2.59 12.89c0-4.88 0-10.25-.17-12.51a.33.33 0 0 0-.31-.33h-13l-.19.14c-.41.26-.41.38-.41 1 0 1.92-.14 9.19-.17 14.4h14.26zm-3.1-8.48c0 .27-.31.44-.48.56-.36.28-.33.16-.36.72v.81c0 1.59.1 3.79.17 5.24a.89.89 0 0 1-.89.87c-.31 0-.6-.2-.6-.7v-1.16h-4v1.56a.88.88 0 0 1-.92.82.59.59 0 0 1-.62-.67v-.07c.12-1.85.17-3 .17-4.16V9.68a24.54 24.54 0 0 0-.24-3.12v-.17c0-.05 0-.12.1-.12a7.15 7.15 0 0 1 2.06.89h3a.38.38 0 0 0 .31-.2c.38-.6.48-.67.6-.67.29.02 1.7.84 1.7 1.29zM120 10V8.1c0-.12 0-.29-.19-.29h-3.32l-.09.08c-.39.31-.41.38-.41 2.95v2.47h4c.01-1.09.01-2.25.01-3.31zm37.32 9.73c0 .22-2 .91-2.69 1.49-.19.17-.21.33-.5.33a15 15 0 0 1-8.33-5.35 19 19 0 0 1-11 5.5c-.14 0-.19 0-.19-.07s.29-.24.6-.34a20.13 20.13 0 0 0 9.79-6.17 14.15 14.15 0 0 1-2.48-6.26V8.5l-.17.31c-.27.57-.89 1.61-1 1.85s0 .76-.31.76a4 4 0 0 1-1.71-1.29c0-.05 0-.1.17-.17a7 7 0 0 0 2.83-3.07.74.74 0 0 1 .72-.58c.43 0 .87.27.87.55s-.12.29-.41.44a.47.47 0 0 0-.17.09 1.09 1.09 0 0 0-.24.75v.14a9.86 9.86 0 0 0 2.52 6 15.46 15.46 0 0 0 3-8.17h-5.21c-1.34 0-4.53.05-6.67.27-.43 0-1.11-.94-1.11-1.25 2.48.29 6.51.38 7.9.38H145V3.82a16.34 16.34 0 0 0-.27-3.34.56.56 0 0 1 0-.17s2.91.33 2.91.89c0 .16-.15.31-.39.48-.55.36-.62.12-.69 1.24 0 .39-.05 1.9-.05 2.64H152a.51.51 0 0 0 .41-.21c.21-.34 1-1.54 1.39-1.54a.24.24 0 0 1 .14 0c.72.26 2.16 1.58 2.16 2 0 .14-.12.28-.53.28h-5.88c1.44.46 1.59.68 1.59.8s-.17.28-.48.38-.44 0-.6.7a19 19 0 0 1-3.6 7.32 14.68 14.68 0 0 0 10 4.32h.4c.22.05.32.07.32.12zm26.38-5.57c0 .15-.12.29-.53.29h-9.36v2.64c0 .41.1 1.22.1 1.75 0 2.5-2.48 2.88-3.22 2.88a.52.52 0 0 1-.48-.31c-.38-.6-2.79-1.66-2.79-1.85H167.83a19.26 19.26 0 0 0 3 .41c1.56 0 1.59-.82 1.59-2.9 0-.87 0-1.78-.05-2.48v-.14h-2.07c-1.34 0-4.82.05-7 .26-.45 0-1.12-.93-1.12-1.25 2.47.32 6.86.39 8.25.39h1.92a11.28 11.28 0 0 0-.26-2.21.54.54 0 0 1 0-.19h.05c.05 0 1.42.29 1.71.36a13.42 13.42 0 0 0 1.8-2.47c0-.07 0-.12-.22-.12h-2.3c-1.71 0-3.22 0-5.28.17-.38 0-1.05-.8-1.05-1.13 2.68.29 5.52.33 6.38.33h2.31a.61.61 0 0 0 .5-.21c.7-.58.77-.58.82-.58.33 0 1.24.77 1.29.82A10.68 10.68 0 0 0 179.64 6c0-.07 0-.12-.14-.12h-13.16c-.14 2.21-1.51 3.77-2.56 3.77a.82.82 0 0 1-.87-.82 1.64 1.64 0 0 1 .67-1.17A5.82 5.82 0 0 0 165.86 4c0-.19.1-.29.15-.29s.29.53.33 1.61h8.91a24.09 24.09 0 0 0 1.75-3.4 6.25 6.25 0 0 0 .29-1.37c0-.17 0-.21.1-.21s2.37 1.12 2.37 1.58c0 .19-.28.29-.74.31a.7.7 0 0 0-.65.29c-.48.46-1.85 2.06-2.64 2.76h3.87a.71.71 0 0 0 .4-.19s.41-.48.77-.48c.15 0 2.14 1 2.14 1.7 0 .29-.27.53-1 .58s-2.45 1.27-3.55 1.92l.09.12a.58.58 0 0 1 .17.38c0 .27-.29.48-.6.55a3.06 3.06 0 0 0-1.3.48c-.74.51-1.56 1.11-2.32 1.59h.07c.29.1.38.22.38.34s-.24.36-.5.5c-.46.24-.46.24-.51 1.06h5.74a.5.5 0 0 0 .41-.22c.33-.53 1.13-1.58 1.39-1.58.49.02 2.32 1.65 2.32 2.13zm-13.92-11a.9.9 0 0 1-.82 1c-.31 0-.67-.21-.94-.79a7.47 7.47 0 0 0-1.53-2c-.12-.12-.19-.19-.19-.24s0-.05.16-.05c.92-.08 3.32.62 3.32 2.11zm4.08-.43a1 1 0 0 1-.86 1.09c-.34 0-.72-.27-.89-.94a7.6 7.6 0 0 0-1.2-2.26.6.6 0 0 1-.14-.26h.07c.07 0 3.02.74 3.02 2.4zm32.92 3.7c0 .22-.17.46-.53.7a2.85 2.85 0 0 0-1.06 1.13c-3.12 5.54-6.93 9.84-12.5 11.52a2.41 2.41 0 0 1-.62.12h-.15s.24-.26.65-.46c6.65-3 11.26-11.9 11.26-12.41 0-.33-.27-.57-.7-.57a29.58 29.58 0 0 0-5.35 1.22 8.45 8.45 0 0 1-2.16.58c-1 0-3.15-1.18-3.15-1.92 0-.39.2-.53.41-.53a.53.53 0 0 1 .43.24c.22.34 1 .48 2 .48.53 0 1.08-.05 1.64-.1 1-.12 4.51-.64 5.54-.79.62-.09.89-.65 1.42-.65.83-.05 2.87.79 2.87 1.44zm19.13 2.81c-.16 9.41-7.77 12.12-8.4 12.12h-.07s.27-.29 1-.72c3.51-2.14 5.86-6.36 6-11.62.05-1 0-1.78.1-2.93V5.3c0-1.63-.48-2.16-1.1-2.23-.15 0-.44-.15-.44-.34a.85.85 0 0 1 .87-.55c.74 0 2.85 1.08 2.85 1.87a1.63 1.63 0 0 1-.24.7c-.4.89-.48 1.68-.57 4.49zm-5.28-2.3a32.4 32.4 0 0 0 .15 4.22c0 .24.05.41.05.55 0 .51-.27 1.71-.92 1.71-.36 0-.69-.44-.69-1.37a3 3 0 0 1 0-.41c.1-1.06.14-1.78.14-2.54 0-2.81-.21-4.59-1.46-4.66-.17 0-.46-.12-.46-.31s.53-.58 1.08-.58 2.48.72 2.48 1.63a1.2 1.2 0 0 1-.14.48 3.48 3.48 0 0 0-.23 1.28zm34.3 1.75c0 .55-1.13.79-1.63 1.2a49.4 49.4 0 0 1-5.62 4c.58.41 2.23 1.6 2.23 2.76a.89.89 0 0 1-.81 1 1.34 1.34 0 0 1-1.1-.75 15.39 15.39 0 0 0-4.42-4.52c-.36-.23-.55-.38-.55-.45s0 0 .09 0a14 14 0 0 1 4 1.7c1.27-1.08 4.53-4.36 4.53-5 0-.27-.24-.39-.72-.39a38.46 38.46 0 0 0-8.69 1.73 4.87 4.87 0 0 1-1.51.34c-.67 0-3.21-.84-3.21-2 0-.24.12-.33.28-.33a1.14 1.14 0 0 1 .58.26 4.44 4.44 0 0 0 2.11.41c.29 0 .53 0 .75-.05 3.07-.43 5.32-.84 8.61-1.13 1.13-.09 1.23-.62 1.8-.62s3.28.9 3.28 1.84zm28.39 10.44c0 .19-2.11.62-2.72 1.22a.24.24 0 0 1-.21.12c-.55 0-5.31-2.42-8.14-6.67 0 2.45.1 4.9.17 7.13a1 1 0 0 1-1 .89.64.64 0 0 1-.7-.72V21c.12-1.85.22-3.87.27-5.91A19.61 19.61 0 0 1 260.18 21h-.14s.16-.17.48-.29a24.15 24.15 0 0 0 10.08-7.35h-3.72v.94c0 .43-.5.72-.94.72a.56.56 0 0 1-.62-.58v-.07c.14-1.8.17-3.6.17-4.87a20.7 20.7 0 0 0-.29-3.91 1.09 1.09 0 0 0 0-.15v-.07a10.92 10.92 0 0 1 2.21 1.06H271L270.93 4h-1.53c-1.35 0-4.42.05-6.56.27-.43 0-1.13-.89-1.13-1.23V3c2.47.29 6.41.38 7.8.38h1.42a22.16 22.16 0 0 0-.24-3.19.34.34 0 0 1 0-.14h.05c.17 0 2.71.38 2.71.91 0 .17-.14.31-.38.48-.5.34-.58.15-.62 1.18v.81h5.13a.49.49 0 0 0 .41-.21c.92-1.3 1.08-1.47 1.35-1.47a.24.24 0 0 1 .14 0c.82.29 2.14 1.58 2.14 2 0 .14-.12.28-.53.28h-8.67l-.07 2.38H276a.34.34 0 0 0 .31-.14c.46-.6.55-.63.67-.63.48 0 2 1.06 2 1.42s-.28.41-.55.55c-.43.24-.53.19-.55.77v.72c0 1.25.1 3.17.2 4.61a.89.89 0 0 1-.92.79.59.59 0 0 1-.64-.62v-.58h-4.12a17.86 17.86 0 0 0 10.7 5.7c.17.06.22.08.22.13zM271 7h-3.57l-.17.1c-.34.21-.36.12-.38.91V9.4H271zm0 3h-4.15v2.71H271zm5.48-2.74a.31.31 0 0 0-.31-.26h-3.92v2.4h4.29c-.02-.88-.02-1.62-.06-2.18zM272.23 10v2.71h4.23V10zM298 17.09c0 .12-.12.22-.39.22a3.64 3.64 0 0 1-.38 0 .7.7 0 0 0-.22 0c-.14 0-.21.05-.43.24a18.86 18.86 0 0 1-7.39 3.44c-.12 0-.19 0-.19-.08s.14-.16.45-.28c2.07-.84 6-3.51 6.46-5.05 0-.11.05-.21.12-.21s1.97 1.31 1.97 1.72zm12.94-12.67c0 .14-.12.28-.52.28h-12c-1.34 0-4.46 0-6.62.27-.46 0-1.13-.94-1.13-1.25 2.47.31 6.5.38 7.89.38h1.52v-.43a17 17 0 0 0-.27-3.33.59.59 0 0 1 0-.17s2.86.34 2.86.89c0 .17-.15.31-.39.48-.55.36-.62.1-.69 1.25 0 .38-.05.89-.05 1.34h5.3a.49.49 0 0 0 .41-.21c.34-.53 1.13-1.59 1.4-1.59a4.89 4.89 0 0 1 2.29 2.09zm-3.36 3.76c0 .24-.29.41-.57.56-.48.24-.48.24-.48 1.29s.09 2.31.19 3.8a.87.87 0 0 1-.94.8.66.66 0 0 1-.72-.68v-.55h-2.76c.17.05.24.12.24.22s-.09.19-.29.26c-.45.19-.38.17-.45.91 0 .46-.05.87-.05 1.32v1.44c0 .55.1 1.11.1 1.61 0 2.11-2.28 2.55-2.66 2.55-.22 0-.32-.12-.46-.34-.31-.46-2.64-1.44-2.64-1.61s.05-.05.1-.05.16 0 .31.05a14.69 14.69 0 0 0 2.33.27c1 0 1.46-.29 1.51-1 0-.44.05-1.06.05-1.71a35.66 35.66 0 0 0-.15-4h-3.65v.72c0 .41-.48.7-1 .7s-.67-.17-.67-.58v-.07c.17-1.87.19-3 .19-4a16.58 16.58 0 0 0-.28-3.43.34.34 0 0 1 0-.14c0-.05 0-.07.05-.07a9.37 9.37 0 0 1 2.3 1h7.27a.51.51 0 0 0 .36-.2c.22-.36.58-.72.75-.72s2.02 1.2 2.02 1.65zm-2.47 2.09c0-.62 0-1.2-.05-1.75a.24.24 0 0 0-.26-.26h-7.59l-.12.07c-.52.33-.52.33-.52 2.25v2.26h8.5c.04-1.01.04-1.84.04-2.57zm4.9 9.05a1 1 0 0 1-.87 1.06 1.22 1.22 0 0 1-1-.67 15.6 15.6 0 0 0-4.29-3.65q-.15-.1-.15-.15h.1c.28-.04 6.2 1.18 6.2 3.41z"/></g></g></svg>