<svg xmlns="http://www.w3.org/2000/svg" viewBox="0 0 179.4 21.94"><defs><style>.cls-1{fill:#040000}</style></defs><title>place</title><g id="レイヤー_2" data-name="レイヤー 2"><g id="レイヤー_1-2" data-name="レイヤー 1"><path class="cls-1" d="M7.46 21.72a.22.22 0 0 1-.23.22A12.06 12.06 0 0 1 0 11 12 12 0 0 1 7.27 0a.22.22 0 0 1 .22.19.32.32 0 0 1-.17.27A12.84 12.84 0 0 0 1.63 11a12.92 12.92 0 0 0 5.69 10.51.26.26 0 0 1 .14.21zm21.63-1.94c-.07.17-.24.26-.65.26 0 0-4-.09-7.42-.09-1.72 0-3.33 0-4.27.09a.25.25 0 0 1-.27-.26.59.59 0 0 1 .22-.43c2.06-.17 2.14-.36 2.14-3.1 0-1.66.07-3.31.07-5V8.37a23.15 23.15 0 0 0-.19-3.63c-.09-.55-.43-1.08-2.09-1.08a.54.54 0 0 1-.21-.41.28.28 0 0 1 .21-.25c.74.07 2.18.1 3.81.1 3.22 0 7.08-.1 7.08-.1.41 0 .53 0 .53.24v.39c0 .76.16 1.77.16 2.56a.38.38 0 0 1-.38.44.21.21 0 0 1-.22-.12c-.84-2.28-1.8-2.74-4.48-2.74a12.62 12.62 0 0 0-1.44.07c-.7.12-.77.36-.77 4.59v1.75c0 .36.26.38 1.34.38 1.95 0 3.31-.09 3.67-2.13 0-.15.2-.22.36-.22s.36.07.36.26a14.93 14.93 0 0 0-.12 2.11c0 1.49.12 2.95.12 2.95 0 .15-.16.24-.36.24a.35.35 0 0 1-.36-.24c-.19-2.13-1.84-2.28-3.79-2.28-1.13 0-1.22 0-1.22.41v1c0 1.15 0 2.81.05 3.43.09 2 0 2.83 2.32 3.17a5.61 5.61 0 0 0 1 .07c2.6 0 4-.91 5.69-3.38a.26.26 0 0 1 .22-.12c.19 0 .41.19.41.31-.35 1.05-1.28 2.92-1.52 3.64zm15.17-7.3c0 2.52-2.84 4.73-3.92 4.73a.83.83 0 0 1-.91-.74c0-.34.24-.72.84-1 2-.94 3-1.92 3.58-3.29.09-.22.17-.36.24-.36s.17-.01.17.66zm11.35-3.74c0 .31-.31.55-.89.55a2.17 2.17 0 0 1-.41 0A13.71 13.71 0 0 0 51.65 9a21.3 21.3 0 0 0-2.91.22v4.94c0 1.15.22 1.92.22 2.71 0 1.44-.53 2.38-1.1 2.38-.36 0-.72-.38-.82-1.1a8.59 8.59 0 0 0-1.85-3.41c-.09-.12-.14-.19-.14-.24s0-.07.07-.07a.48.48 0 0 1 .24.09c.48.31 1.39 1.06 1.85 1.3a.5.5 0 0 0 .21.07c.1 0 .17-.1.17-.29V9.36c-.7.1-1.34.22-2 .34a11.89 11.89 0 0 1-2 .43c-1 0-3.12-.65-3.12-1.56 0-.39.17-.39.22-.39a1.83 1.83 0 0 1 .53.17 7.09 7.09 0 0 0 2.8.55 30.11 30.11 0 0 0 3.6-.36V6.77c0-1.32-.4-2.07-1.44-2.07h-.24c-.12 0-.34-.1-.34-.27s.2-.62 1-.62 2.62.67 2.62 1.61c0 .36-.24.81-.31 1.51 0 .38-.07.89-.1 1.44l1.85-.26c1.15-.17 1.15-.63 2.16-.63 1.25.03 2.79.66 2.79 1.26zm.86 6.67a1 1 0 0 1-.89 1.06 1.14 1.14 0 0 1-.84-.6 11.86 11.86 0 0 0-3.74-3.8c-.31-.19-.45-.31-.45-.38s0 0 .09 0c.91-.05 5.83 1.85 5.83 3.72zm25.78-4.68c0 .43-.91.77-1.77.79-2 .07-8 0-10.88.6a6.08 6.08 0 0 1-1.36.22c-1.23 0-3.08-1.2-3.08-2.11 0-.2 0-.27.17-.27a1.81 1.81 0 0 1 .67.34 5.78 5.78 0 0 0 2.31.33c.38 0 7.73-.33 10.87-.57A7.23 7.23 0 0 1 80 10c.57 0 2.25.06 2.25.73zm5.02 8.57c-.07 0-.09 0-.09-.05s.14-.22.43-.36c3.12-1.66 6.89-7.13 6.89-9.48A1.4 1.4 0 0 0 93 7.94c-.25 0-.36-.12-.36-.26a1 1 0 0 1 1-.7 2.68 2.68 0 0 1 2.5 2.31 3.72 3.72 0 0 1-.14 1.13c-2 5.9-7.62 8.88-8.73 8.88zm13.47-2.95c-.34.21-.84 1-1.37 1-.77 0-1.63-1.56-1.63-1.9s.19-.55.29-1.22a34.25 34.25 0 0 0 .41-4.71c0-1.94-.39-2.78-1.08-3-.44-.14-.58-.29-.58-.41s.5-.41 1.06-.41A2.61 2.61 0 0 1 100 8a2.08 2.08 0 0 1-.09.63 44.21 44.21 0 0 0-.65 6c0 .32.21.32.21.32.41 0 5.48-3 8.72-7.66.28-.41.45-.6.52-.6s0 0 0 .07c.02.75-3.07 6.24-7.97 9.59zm20.81-3.24a2.14 2.14 0 1 1 2.13-2.11 2.14 2.14 0 0 1-2.13 2.11zM144 19.78c0 .14-.09.26-.31.26 0 0-2.06-.14-4.3-.14a28.54 28.54 0 0 0-3.28.14H136a.23.23 0 0 1-.26-.24.67.67 0 0 1 .26-.45c3-.34 2.84-.56 3-3.32.05-1.08.09-3.16.09-5.25 0-4.95 0-5-.45-5a20.14 20.14 0 0 0-2.31.43.36.36 0 0 1-.38-.36.44.44 0 0 1 .19-.36 13.21 13.21 0 0 0 4.39-2.18A.94.94 0 0 1 141 3c.17 0 .31.16.31.5v.22c-.26 2.47-.26 8.37-.26 9.12v3.19c.07 2.57.1 3.07 2.66 3.34a.55.55 0 0 1 .29.41zm18.89-13.44c0 .16-.19.26-.36.26a.28.28 0 0 1-.24-.14c-.86-2.07-1.22-2.74-4.44-2.74a7.47 7.47 0 0 0-1.41.1c-.65.09-.75.16-.75 5.25v1.32c0 .27.19.39 1.59.39 1.84 0 3.48-.1 3.84-2.14 0-.17.19-.24.36-.24a.31.31 0 0 1 .33.29v.05a14.93 14.93 0 0 0-.12 2.11c0 1.49.12 3 .12 3 0 .17-.19.27-.36.27s-.33-.08-.33-.27c-.24-2.3-2-2.33-4-2.33-1.32 0-1.42 0-1.42.44v.31c0 .84.05 2.3.05 3.17v.33c0 3.27.29 3.24 2.47 3.63a.28.28 0 0 1 .22.31c0 .19-.1.38-.24.38s-1.9-.17-3.84-.17a19.27 19.27 0 0 0-2.76.17h-.07c-.15 0-.22-.12-.22-.26a.55.55 0 0 1 .22-.43c2.11-.29 2.08-.68 2.11-3.8v-5.06-3.63c0-3-.12-2.9-2.21-3.19a.52.52 0 0 1-.22-.41.25.25 0 0 1 .24-.28h.05a23.64 23.64 0 0 0 2.43.09c1.89 0 4.29-.09 6.43-.09 2.47 0 2.52 0 2.52.24s0 .21-.05.36a4.27 4.27 0 0 0 0 .52c0 .68.07 1.52.09 2.21zm9.29 15.6a.22.22 0 0 1-.24-.22.29.29 0 0 1 .14-.21A12.92 12.92 0 0 0 177.77 11 12.84 12.84 0 0 0 172.08.46a.32.32 0 0 1-.17-.27.22.22 0 0 1 .22-.19 12 12 0 0 1 7.27 11 12.07 12.07 0 0 1-7.22 10.94z"/></g></g></svg>