<svg xmlns="http://www.w3.org/2000/svg" viewBox="0 0 100.77 21.67"><defs><style>.cls-1{fill:#040000}</style></defs><title>shikatojitsuzon</title><g id="レイヤー_2" data-name="レイヤー 2"><g id="レイヤー_1-2" data-name="レイヤー 1"><path class="cls-1" d="M21.24 3.36c0 .14-.12.29-.53.29H5.83l-.19.14c-.29.21-.34.21-.34.77v2.11h3.17a12 12 0 0 0-.24-2.28.49.49 0 0 1 0-.14h.07c.07 0 2.43.24 2.43.79 0 .17-.2.36-.51.51s-.36.24-.36 1.17h3.22a12.9 12.9 0 0 0-.24-2.28.34.34 0 0 1 0-.14h.08c.08 0 2.42.24 2.42.79 0 .17-.19.36-.5.51s-.36.24-.36 1.17h2.76a.38.38 0 0 0 .33-.17c.39-.6.6-.67.7-.67S20 6.67 20 7.15c0 .27-.31.46-.53.6-.38.24-.43.51-.43 1.2 0 .53.07 1.59.17 2.57v.05a.85.85 0 0 1-.89.77.61.61 0 0 1-.67-.65v-.55H5.09C4.15 19.8.17 21.22.05 21.22c0-.1.14-.29.48-.65 2.64-2.69 3.24-8 3.24-12.67A26.62 26.62 0 0 0 3.31 2a.76.76 0 0 1 0-.17v-.07a11.76 11.76 0 0 1 2.55 1.17l.14.12h4.9v-.24a10.65 10.65 0 0 0-.24-2.59.4.4 0 0 1 0-.17s2.85.36 2.85.89c0 .15-.14.31-.38.46-.58.36-.65.19-.7 1v.7h4.94a.5.5 0 0 0 .41-.22c.81-1.15 1-1.39 1.27-1.39a.32.32 0 0 1 .14 0c.49.17 2.05 1.39 2.05 1.87zm-8.33 12.22c0 .14-.09.31-.43.31H8.54v3.24c1.53-.36 3.19-.79 4.29-1.15a.54.54 0 0 1 .2 0c.09 0 .14 0 .14.08 0 .43-4.27 2.13-7.63 3.26-.22.07-.32.31-.48.31-.34 0-1.32-1.73-1.32-1.77s0 0 .16 0h.27a15.8 15.8 0 0 0 3.07-.38c0-.67.1-3.79.1-5.38a10.53 10.53 0 0 0-.22-2v-.09s0-.07.19-.07 2.14.24 2.14.67c0 .17-.24.36-.55.5s-.22.1-.32 2.24h1.33a.44.44 0 0 0 .27-.15c.48-.77.81-1.2 1-1.2.61-.08 1.73 1.34 1.73 1.58zM5.3 7.32c0 1-.07 2.11-.16 3.22h3.31V7.32zm4.54 0V10.54H13V7.32zm11.83 12.27c0 1-1.89 1.51-4.94 1.51-2.18 0-3.22-.53-3.22-1.66v-.07c0-.6.05-4.56.05-5a11.85 11.85 0 0 0-.14-2.37.34.34 0 0 1 0-.16s0-.07.12-.07c.46 0 2.24.4 2.24.79 0 .14-.17.29-.48.43s-.39.24-.41.79l-.1 2.22c2.49-1.05 3.36-1.53 4-2.49 0-.08.07-.1.09-.1a5.38 5.38 0 0 1 1.56 2.14c0 .14-.12.24-.31.24a1.37 1.37 0 0 1-.48-.1 1.09 1.09 0 0 0-.36-.1.42.42 0 0 0-.19 0c-.6.17-2.95.69-4.3.91v2.4c0 .53.07 1 2.16 1 2.52 0 3-.34 3.52-3.24 0-.12.05-.19.08-.19s.28 2.28.67 2.52a.82.82 0 0 1 .44.6zM17.74 9.22V7.61a.27.27 0 0 0-.31-.29h-3V10.54h3.31c-.03-.46 0-.89 0-1.32zM37.5 21.05c-4.13 0-5.45-2.59-5.45-4.1 0-2 1.78-4.08 4.3-5.21-1.3-.58-1.66-1.92-1.66-3.39a28.92 28.92 0 0 1 .36-3.48 14.42 14.42 0 0 0 .14-1.53c0-.92-.28-1.25-1.24-1.44-.22 0-.34-.15-.34-.27a.92.92 0 0 1 1-.67 2.54 2.54 0 0 1 2.24 2.33 7.69 7.69 0 0 1-.29 1.46 19.93 19.93 0 0 0-.65 3.92c0 1.22.38 2.25 1.63 2.59a5.23 5.23 0 0 1 2.09-.58c1 0 1 .58 1 .75 0 .91-1.2 1.19-1.89 1.19h-.56c-2 0-5.13 1.85-5.13 4.08 0 1.49 1.25 2.76 3.77 2.76a7.34 7.34 0 0 0 3.24-.72 1.88 1.88 0 0 1 .74-.19.9.9 0 0 1 1 .82c0 1.13-2.6 1.68-4.3 1.68zM73 19.71c0 .19-2.18.86-2.64 1.56a.39.39 0 0 1-.34.16c-1.2 0-6.28-2-7.77-6.26h-.29c-1.87 6.34-10.54 6.43-10.75 6.43s-.39-.05-.39-.09.34-.22.67-.29c4.49-.79 7.78-2.76 9-6h-1.14c-1.32 0-4.44.05-6.58.24-.41 0-1.1-.82-1.1-1.15 2.42.29 6.43.34 7.8.34h1.13a10.83 10.83 0 0 0 .29-2.74H60a37.68 37.68 0 0 0-4.15.22c-.39 0-1.08-.82-1.08-1.13a46.94 46.94 0 0 0 5.35.33h.84V8.72h-1.47a42.56 42.56 0 0 0-4.49.11c-.36 0-1-.77-1-1.13a51.48 51.48 0 0 0 5.57.3h1.29a19.44 19.44 0 0 0-.24-2.88.54.54 0 0 1 0-.15s2.73.34 2.73.89c0 .17-.19.36-.5.53-.46.26-.53.1-.55 1V8h3.19a.54.54 0 0 0 .34-.2c.19-.31.88-1.24 1.2-1.24a.36.36 0 0 1 .14 0c.79.29 2 1.27 2 1.73 0 .14-.12.29-.53.29H62.3v2.61h2.4A.44.44 0 0 0 65 11c.24-.38.84-1.18 1.1-1.18h.17c.75.29 1.85 1.15 1.85 1.65 0 .15-.12.29-.5.29h-5.29a15 15 0 0 1-.24 2.74h5.49a.52.52 0 0 0 .36-.19c.12-.19 1-1.47 1.35-1.47h.17a4.49 4.49 0 0 1 2.08 1.94c0 .15-.12.29-.52.29h-8.36c1.78 2.64 5.24 4.49 9.89 4.49h.17c.17.1.28.12.28.15zM71.5 4.82c0 .27-.27.51-.94.53a8.11 8.11 0 0 0-3.19 1h-.24a.3.3 0 0 1 .09-.17 9.5 9.5 0 0 0 1.18-1.72.13.13 0 0 0-.14-.12H54.93c-.31 2.28-1.65 3.1-2.42 3.1a.81.81 0 0 1-.89-.77 1.42 1.42 0 0 1 .63-1 5.07 5.07 0 0 0 2.23-3.46c.05-.17.09-.26.14-.26S55 3.07 55 3.74h5.88V3.5A18.88 18.88 0 0 0 60.6.29a.38.38 0 0 1 0-.17c.48 0 2.83.38 2.83.91 0 .19-.17.36-.45.53-.51.31-.51.28-.58 1l-.07 1.2h6a.67.67 0 0 0 .36-.19c.08-.09.51-.57.8-.57h.09c.57.22 1.92 1.18 1.92 1.82zm29.1-.5c0 .14-.12.29-.53.29H88.19a33.84 33.84 0 0 1-2.69 4.58c.89.15 1.13.31 1.13.48s-.17.34-.46.46c-.52.24-.57.17-.6 1 0 1.53-.09 3.43-.09 5.37 0 1.42 0 2.86.07 4.18a1.05 1.05 0 0 1-1.08 1c-.34 0-.65-.21-.65-.76v-.17c.26-2.64.43-6.07.43-8.45v-1.45c-2.64 3.26-5 4.66-5.33 4.66s.12-.21.4-.45a30.87 30.87 0 0 0 7.21-10.45c-1.56 0-3.89.09-5.57.26-.43 0-1.15-.93-1.15-1.25 2 .24 5.21.36 7 .39a10.05 10.05 0 0 0 1-3.79c0-.17 0-.22.09-.22.29 0 2.57.89 2.57 1.32 0 .17-.19.36-.7.53-.33.12-.43.14-.57.48-.2.57-.46 1.13-.72 1.67h8a.5.5 0 0 0 .41-.22c.22-.33 1-1.53 1.39-1.53a.39.39 0 0 1 .15 0c.73.29 2.17 1.61 2.17 2.07zm.17 9.19c0 .17-.12.32-.53.32H94V16.9c0 .45.1 1.63.1 2.13 0 2.14-2.31 2.55-2.64 2.55s-.29-.12-.36-.34c-.27-.72-2.64-1.61-2.64-1.8h.09a1.62 1.62 0 0 1 .29 0 19.11 19.11 0 0 0 2.57.27c.84 0 1.2-.22 1.25-.87s0-1.68 0-2.81v-2.2h-.6a47.07 47.07 0 0 0-4.8.26c-.41 0-1.13-.86-1.13-1.2a56.47 56.47 0 0 0 6 .36h.48v-.12a18.46 18.46 0 0 0-.27-2.52 1 1 0 0 1 0-.19v-.05a11.47 11.47 0 0 1 1.44.29 15.27 15.27 0 0 0 1.8-2.36c0-.07 0-.12-.21-.12h-1.2a42.52 42.52 0 0 0-4.68.17c-.41 0-1-.79-1-1.13a52.88 52.88 0 0 0 5.78.34h1.27a.63.63 0 0 0 .46-.22c.55-.48.72-.57.84-.57s1.89 1 1.89 1.56c0 .26-.29.48-.6.55a3.33 3.33 0 0 0-1.37.43c-.76.51-1.6 1.06-2.35 1.52.24.07.51.16.51.43s-.15.31-.36.45c-.48.29-.44.22-.48 1v.5h3.12a.5.5 0 0 0 .36-.17 11.15 11.15 0 0 1 1-1.39.34.34 0 0 1 .22-.07h.17c.52.3 1.82 1.57 1.82 1.93z"/></g></g></svg>